# xmcd
#
# Track frame offsets:
#	150
#	9545
#	21972
#	33547
#	43602
#	56175
#	68287
#	77615
#	90775
#	102952
#	114552
#	126550
#	140220
#	153767
#
# Disc length: 2198 seconds
#
# Revision: 1
# Processed by: cddbd v1.5.1PL0 Copyright (c) Steve Scherf et al.
# Submitted via: audiograbber 1.83.01
#
DISCID=b108940e
DTITLE=Gladys Night And The Pips - Gladys Night And The Pips Gold
DYEAR=1900
DGENRE=Soul
TTITLE0=Every Beat Of My Heart
TTITLE1=Letter Full of Tears
TTITLE2=Letters Always Forgive
TTITLE3=Operator
TTITLE4=Come See About Me
TTITLE5=A Love Like Mine
TTITLE6=Room In Your Heart
TTITLE7=Before Now And Then
TTITLE8=You Broke Your Promise
TTITLE9=It Hurts So Bad
TTITLE10=Either Way I Loose
TTITLE11=Queen Of Tears
TTITLE12=Get Hold Of Myself
TTITLE13=How Do You Say Goodbye
EXTD=
EXTT0=
EXTT1=
EXTT2=
EXTT3=
EXTT4=
EXTT5=
EXTT6=
EXTT7=
EXTT8=
EXTT9=
EXTT10=
EXTT11=
EXTT12=
EXTT13=
PLAYORDER=
